<?xml version="1.0" standalone="no"?>
<!DOCTYPE svg PUBLIC "-//W3C//DTD SVG 20010904//EN"
 "http://www.w3.org/TR/2001/REC-SVG-20010904/DTD/svg10.dtd">
<svg version="1.0" xmlns="http://www.w3.org/2000/svg"
 width="450.000000pt" height="343.000000pt" viewBox="0 0 450.000000 343.000000"
 preserveAspectRatio="xMidYMid meet">

<g transform="translate(0.000000,343.000000) scale(0.100000,-0.100000)"
fill="#000000" stroke="none">
<path d="M3090 2771 c0 -9 -9 -12 -25 -9 -14 3 -25 1 -25 -3 0 -13 48 -11 55
2 4 6 4 13 1 16 -3 4 -6 1 -6 -6z"/>
<path d="M323 2763 c27 -4 27 -5 27 -78 0 -41 5 -77 10 -80 6 -4 10 23 10 74
l0 80 33 4 c17 2 1 4 -38 4 -38 0 -58 -2 -42 -4z"/>
<path d="M448 2719 c-20 -11 -24 -68 -8 -100 17 -30 90 -23 90 9 0 12 -3 13
-12 4 -7 -7 -25 -12 -40 -12 -21 0 -28 5 -28 20 0 17 7 20 40 20 35 0 40 3 40
23 0 42 -41 60 -82 36z m72 -29 c0 -16 -7 -20 -35 -20 -28 0 -35 4 -35 20 0
16 7 20 35 20 28 0 35 -4 35 -20z"/>
<path d="M588 2719 c-21 -12 -25 -88 -6 -107 23 -23 88 -11 88 16 0 12 -3 13
-12 4 -7 -7 -25 -12 -40 -12 -27 0 -28 2 -28 45 0 45 0 45 35 45 20 0 35 -5
35 -12 0 -6 3 -8 6 -5 11 11 -17 37 -40 37 -11 0 -29 -5 -38 -11z"/>
<path d="M978 2723 c-16 -4 -18 -16 -17 -86 1 -45 4 -72 6 -59 3 16 11 22 29
22 47 0 64 17 64 63 0 61 -21 76 -82 60z m68 -37 c11 -44 -3 -66 -42 -66 -31
0 -34 3 -34 29 0 47 10 61 41 61 22 0 30 -6 35 -24z"/>
<path d="M1112 2718 c-7 -7 -12 -33 -12 -59 0 -49 9 -59 54 -59 33 0 46 19 46
65 0 47 -13 65 -50 65 -14 0 -31 -5 -38 -12z m73 -53 c0 -39 -1 -40 -35 -40
-31 0 -35 3 -38 28 -5 46 4 59 40 55 31 -3 33 -5 33 -43z"/>
<path d="M1392 2718 c-7 -7 -12 -16 -12 -22 0 -6 5 -5 12 2 20 20 58 15 58 -7
0 -16 -8 -20 -37 -23 -30 -2 -39 -8 -41 -24 -4 -31 22 -47 63 -40 34 7 35 9
35 51 0 62 -43 98 -78 63z m58 -78 c0 -15 -7 -20 -28 -20 -34 0 -43 7 -35 26
3 8 18 14 34 14 22 0 29 -5 29 -20z"/>
<path d="M1802 2718 c-7 -7 -12 -30 -12 -53 0 -23 5 -46 12 -53 24 -24 88 -9
88 22 0 6 -5 5 -12 -2 -7 -7 -25 -12 -40 -12 -21 0 -28 5 -28 20 0 17 7 20 40
20 35 0 40 3 40 23 0 30 -18 47 -50 47 -14 0 -31 -5 -38 -12z m76 -30 c3 -15
-4 -18 -32 -18 -30 0 -36 4 -36 21 0 17 5 20 32 17 22 -2 34 -9 36 -20z"/>
<path d="M1992 2718 c-7 -7 -12 -30 -12 -53 0 -23 5 -46 12 -53 23 -23 88 -12
88 15 0 12 -3 13 -14 4 -8 -7 -27 -11 -43 -9 -30 3 -39 23 -29 64 5 19 13 24
36 24 17 0 33 -7 39 -17 9 -15 10 -15 11 -2 0 22 -21 39 -50 39 -14 0 -31 -5
-38 -12z"/>
<path d="M2624 2716 c-10 -8 -15 -18 -11 -22 4 -5 12 -3 16 5 11 17 56 10 56
-9 0 -10 -12 -16 -32 -18 -40 -4 -58 -31 -39 -57 10 -14 21 -16 49 -11 36 7
37 8 37 54 0 68 -30 91 -76 58z m64 -73 c-2 -12 -14 -19 -36 -21 -27 -3 -32 0
-32 17 0 17 6 21 36 21 28 0 35 -3 32 -17z"/>
<path d="M2893 2724 c-8 -4 -13 -26 -13 -60 0 -48 2 -54 24 -60 37 -9 60 -1
63 21 2 11 0 14 -3 8 -3 -7 -21 -13 -40 -13 -27 0 -34 4 -34 20 0 17 7 20 41
20 39 0 40 1 37 33 -3 28 -7 32 -33 34 -16 1 -36 0 -42 -3z m67 -34 c0 -16 -7
-20 -35 -20 -28 0 -35 4 -35 20 0 16 7 20 35 20 28 0 35 -4 35 -20z"/>
<path d="M717 2713 c19 -4 23 -12 26 -56 l3 -52 2 52 c2 45 5 52 25 56 12 2 0
4 -28 4 -27 0 -40 -2 -28 -4z"/>
<path d="M822 2661 c-2 -55 0 -62 13 -51 20 17 58 80 52 86 -2 3 -15 -12 -28
-33 l-24 -38 -6 50 -6 50 -1 -64z"/>
<path d="M894 2704 c3 -9 6 -33 6 -55 0 -21 4 -39 9 -39 5 0 10 25 10 55 0 43
-4 55 -16 55 -10 0 -13 -6 -9 -16z"/>
<path d="M1242 2663 l3 -58 36 -3 c41 -3 66 17 54 45 -4 10 -8 29 -9 43 -1 22
-6 25 -44 28 l-43 3 3 -58z m76 30 c-2 -11 -14 -19 -31 -21 -22 -3 -27 1 -27
17 0 17 6 21 31 21 24 0 30 -4 27 -17z m5 -47 c8 -19 -1 -26 -35 -26 -21 0
-28 5 -28 20 0 15 7 20 29 20 16 0 31 -6 34 -14z"/>
<path d="M1513 2665 c0 -33 2 -48 4 -32 4 23 9 27 39 27 30 0 34 -3 34 -25 0
-14 5 -25 10 -25 6 0 10 25 10 55 0 30 -4 55 -10 55 -5 0 -10 -11 -10 -25 0
-22 -4 -25 -34 -25 -30 0 -35 4 -39 28 -2 15 -4 0 -4 -33z"/>
<path d="M1652 2669 c-1 -31 1 -59 5 -62 3 -4 22 17 42 46 l36 52 6 -55 6 -55
1 63 c1 36 -2 62 -8 62 -6 0 -24 -21 -40 -47 -31 -48 -36 -46 -43 17 -3 24 -4
17 -5 -21z"/>
<path d="M2170 2661 l0 -61 34 0 c45 0 80 33 59 54 -5 4 -8 20 -8 34 0 25 -4
27 -42 30 l-43 3 0 -60z m75 29 c0 -10 -12 -16 -32 -18 -28 -3 -33 0 -33 18 0
18 5 21 33 18 20 -2 32 -8 32 -18z m5 -50 c0 -16 -7 -20 -35 -20 -28 0 -35 4
-35 20 0 16 7 20 35 20 28 0 35 -4 35 -20z"/>
<path d="M2311 2663 l-1 -63 33 4 c17 2 36 4 40 5 5 0 7 16 5 34 -3 28 -7 32
-35 35 -23 2 -33 9 -36 25 -2 12 -5 -6 -6 -40z m64 -18 c0 -14 -8 -21 -27 -23
-24 -3 -28 0 -28 23 0 23 4 26 28 23 19 -2 27 -9 27 -23z"/>
<path d="M2423 2660 c0 -36 2 -50 4 -32 2 17 2 47 0 65 -2 17 -4 3 -4 -33z"/>
<path d="M2480 2673 c-15 -65 -21 -101 -14 -85 3 7 25 12 54 12 29 0 50 -5 53
-12 3 -7 6 -3 6 10 1 12 -3 22 -9 22 -5 0 -10 23 -10 50 l0 50 -34 0 c-33 0
-35 -2 -46 -47z m70 -8 c0 -44 0 -45 -34 -45 l-33 0 10 45 c9 38 14 45 34 45
21 0 23 -5 23 -45z"/>
<path d="M2741 2693 c-1 -36 2 -40 44 -44 22 -3 32 -11 36 -29 4 -14 6 3 6 40
0 36 -2 50 -4 33 -4 -29 -8 -33 -33 -33 -25 0 -31 5 -39 33 l-9 32 -1 -32z"/>
<path d="M3022 2668 c-1 -32 2 -58 7 -58 10 0 64 80 58 86 -3 3 -15 -12 -28
-33 l-24 -38 -6 50 -6 50 -1 -57z"/>
<path d="M3094 2704 c3 -9 6 -33 6 -55 0 -21 5 -39 10 -39 6 0 10 25 10 55 0
44 -3 55 -16 55 -11 0 -14 -5 -10 -16z"/>
<path d="M315 2411 c15 -6 21 -20 26 -62 l6 -54 1 53 c2 44 5 54 25 62 17 7
12 9 -28 9 -34 0 -44 -3 -30 -8z"/>
<path d="M424 2407 c-3 -8 -4 -34 -2 -58 3 -44 3 -44 44 -47 30 -2 43 1 47 12
4 9 2 16 -3 16 -6 0 -10 -5 -10 -11 0 -18 -64 -6 -68 14 -3 14 4 17 38 17 44
0 61 19 43 49 -13 21 -81 27 -89 8z m74 -19 c3 -15 -4 -18 -32 -18 -34 0 -47
15 -29 34 13 13 58 1 61 -16z"/>
<path d="M565 2393 c17 -29 17 -33 2 -57 -23 -35 -21 -46 4 -17 l20 24 26 -24
26 -24 -20 35 c-21 35 -21 35 -2 59 11 13 17 26 14 29 -3 3 -13 -4 -21 -17
l-16 -22 -26 23 -25 23 18 -32z"/>
<path d="M678 2414 c-12 -11 -10 -114 2 -114 6 0 10 11 10 25 0 22 4 25 34 25
30 0 35 -4 39 -27 2 -16 4 1 4 37 0 36 -2 53 -4 38 -4 -24 -9 -28 -38 -28 -29
0 -34 4 -37 26 -2 14 -6 22 -10 18z"/>
<path d="M818 2414 c-5 -4 -8 -32 -8 -61 0 -66 12 -66 55 -2 l30 44 6 -50 6
-50 1 63 c1 34 -1 62 -5 62 -5 0 -21 -21 -38 -48 l-30 -47 -5 48 c-3 27 -8 45
-12 41z"/>
<path d="M955 2407 c-13 -31 10 -67 45 -67 23 0 30 -4 30 -20 0 -11 5 -20 10
-20 6 0 10 27 10 61 0 37 -4 58 -10 54 -5 -3 -10 -20 -10 -36 0 -27 -3 -30
-27 -27 -23 2 -29 9 -34 38 -4 28 -7 31 -14 17z"/>
<path d="M1094 2406 c-3 -7 -4 -33 -2 -57 3 -43 4 -44 42 -47 38 -3 67 11 51
25 -4 5 -10 2 -12 -4 -4 -12 -63 -19 -63 -9 0 2 -3 11 -6 20 -5 13 2 16 40 16
48 0 56 12 40 54 -8 21 -82 22 -90 2z m74 -8 c21 -21 13 -28 -28 -28 -22 0
-40 4 -40 8 0 14 23 32 40 32 9 0 21 -5 28 -12z"/>
<path d="M1234 2406 c-3 -7 -4 -33 -2 -57 l3 -44 45 0 c37 0 45 3 48 20 3 19
2 19 -12 2 -21 -27 -70 -19 -74 12 -6 43 6 71 33 71 13 0 28 -8 34 -17 12 -21
24 -13 15 11 -8 21 -82 23 -90 2z"/>
<path d="M1373 2360 c0 -36 2 -54 4 -40 8 40 26 43 56 7 l28 -32 -16 33 c-14
29 -14 35 0 62 9 17 12 30 7 30 -5 0 -14 -11 -20 -25 -16 -35 -49 -33 -55 3
-2 15 -4 -2 -4 -38z"/>
<path d="M1495 2397 c-4 -13 -5 -39 -3 -58 3 -33 4 -34 48 -34 l45 0 0 55 0
55 -42 3 c-38 3 -43 0 -48 -21z m80 -37 c0 -42 -2 -45 -29 -48 -32 -4 -46 10
-46 49 0 33 19 51 50 47 23 -3 25 -7 25 -48z"/>
<path d="M1637 2413 c-11 -10 -8 -113 3 -113 6 0 10 24 10 54 l0 55 38 4 37 4
-41 1 c-22 1 -44 -1 -47 -5z"/>
<path d="M1744 2407 c-3 -8 -4 -34 -2 -58 l3 -44 45 0 45 0 0 55 0 55 -43 3
c-30 2 -44 -1 -48 -11z m75 -11 c7 -8 11 -30 9 -48 -3 -30 -6 -33 -38 -33 -32
0 -35 2 -38 33 -2 19 -1 40 2 48 7 18 50 18 65 0z"/>
<path d="M1937 2414 c-4 -4 -7 -14 -7 -23 0 -12 3 -11 13 3 16 22 60 18 65 -6
2 -13 -3 -18 -17 -18 -12 0 -21 -4 -21 -10 0 -5 9 -10 20 -10 13 0 20 -7 20
-20 0 -26 -54 -28 -70 -2 -10 15 -10 15 -8 -3 3 -16 12 -21 46 -23 42 -3 51 6
42 43 -1 6 -3 24 -4 40 -1 27 -5 30 -36 33 -20 2 -39 0 -43 -4z"/>
<path d="M2077 2414 c-4 -4 -7 -14 -7 -23 0 -12 3 -11 13 3 16 22 50 18 55 -6
2 -12 -5 -17 -29 -20 -35 -3 -56 -26 -46 -52 4 -11 19 -16 47 -16 l41 0 -3 58
c-3 55 -4 57 -33 60 -17 2 -34 0 -38 -4z m61 -81 c-4 -20 -45 -30 -60 -15 -16
16 1 32 33 32 24 0 30 -4 27 -17z"/>
<path d="M2203 2360 c-1 -43 2 -55 6 -35 3 17 12 30 19 29 28 -2 32 -5 32 -18
0 -7 7 -19 15 -26 19 -16 19 -1 0 28 -14 19 -14 24 0 52 8 16 12 30 7 30 -5 0
-14 -11 -20 -25 -16 -35 -49 -33 -55 3 -2 15 -4 -2 -4 -38z"/>
<path d="M2340 2368 c-7 -29 -18 -56 -24 -60 -8 -6 -7 -8 1 -8 16 0 29 25 37
73 6 32 11 38 29 35 19 -3 23 -11 28 -58 l6 -55 1 63 2 62 -34 0 c-33 0 -34
-2 -46 -52z"/>
<path d="M2473 2360 c0 -36 2 -53 4 -37 5 34 26 35 41 1 10 -21 18 -25 50 -22
34 3 37 6 40 37 6 62 -4 81 -43 81 -28 0 -38 -5 -47 -25 -15 -33 -36 -32 -41
3 -2 15 -4 -2 -4 -38z m115 38 c13 -13 16 -47 6 -72 -4 -10 -18 -16 -35 -16
-28 0 -29 2 -29 43 0 24 3 47 7 50 10 11 38 8 51 -5z"/>
<path d="M2653 2385 c2 -39 3 -40 39 -43 29 -2 38 -8 41 -25 2 -12 4 7 4 43 0
36 -2 48 -4 27 -4 -36 -6 -38 -36 -35 -28 3 -33 8 -39 38 l-6 35 1 -40z"/>
<path d="M2791 2401 c-14 -25 -14 -57 -1 -82 8 -14 21 -19 50 -19 35 0 40 3
40 23 -1 20 -2 20 -11 5 -15 -26 -69 -24 -69 2 0 17 7 20 41 20 39 0 40 1 37
33 -3 29 -6 32 -40 35 -28 2 -39 -1 -47 -17z m74 -16 c0 -16 -6 -19 -30 -17
-37 5 -39 7 -31 27 9 25 61 16 61 -10z"/>
<path d="M2930 2415 c-3 -5 -3 -35 1 -65 3 -30 6 -43 7 -27 2 24 6 27 36 27
30 0 35 -4 39 -27 2 -16 4 1 4 37 0 36 -2 53 -4 39 -3 -22 -10 -28 -38 -31
-32 -4 -34 -2 -37 27 -2 16 -5 26 -8 20z"/>
<path d="M3071 2363 c-1 -35 3 -63 8 -63 4 0 6 24 4 53 -7 77 -11 81 -12 10z"/>
<path d="M3138 2403 c-24 -30 -50 -74 -45 -79 3 -3 15 12 28 33 l24 38 6 -50
6 -50 1 63 c1 34 0 62 -1 62 -2 0 -11 -8 -19 -17z"/>
<path d="M3212 2408 c-15 -15 -16 -44 -1 -54 6 -3 8 -18 5 -33 l-6 -26 16 23
c22 29 54 29 54 0 0 -16 3 -19 11 -11 5 5 9 32 7 59 -3 48 -4 49 -38 52 -19 2
-41 -3 -48 -10z m68 -29 c0 -27 -3 -30 -27 -27 -49 5 -40 57 10 58 12 0 17 -8
17 -31z"/>
<path d="M320 1460 l0 -80 53 0 c59 0 77 12 77 50 0 38 -18 50 -72 50 -44 0
-48 2 -48 24 0 23 4 25 53 29 l52 3 -57 2 -58 2 0 -80z m94 4 c10 -4 16 -18
16 -35 0 -31 -25 -44 -71 -37 -24 3 -36 34 -25 64 5 14 51 19 80 8z"/>
<path d="M494 1486 c-3 -7 -4 -33 -2 -57 3 -43 4 -44 42 -47 38 -3 67 11 52
25 -4 4 -11 2 -15 -6 -12 -18 -65 -10 -69 12 -3 14 4 17 42 17 48 0 56 12 40
54 -8 21 -82 22 -90 2z m79 -16 c4 -17 0 -20 -34 -20 -21 0 -39 2 -39 4 0 38
63 52 73 16z"/>
<path d="M634 1486 c-3 -7 -4 -33 -2 -57 3 -43 4 -44 42 -47 24 -2 42 2 47 10
12 18 11 28 -1 28 -5 0 -10 -7 -10 -16 0 -11 -8 -14 -32 -12 -32 3 -33 5 -33
48 0 40 3 45 24 48 15 3 30 -3 38 -14 15 -20 26 -14 17 10 -8 21 -82 23 -90 2z"/>
<path d="M772 1438 l2 -63 3 58 4 57 34 0 34 0 4 -57 3 -58 2 63 2 62 -45 0
-45 0 2 -62z"/>
<path d="M921 1446 c-7 -30 -18 -57 -24 -60 -7 -2 -5 -5 5 -5 17 -1 23 10 34
72 5 30 10 37 30 37 21 0 23 -5 27 -57 l3 -58 2 63 2 62 -33 0 c-33 0 -34 -2
-46 -54z"/>
<path d="M1057 1493 c-4 -3 -7 -13 -7 -22 1 -14 2 -13 11 2 14 24 59 23 59 -2
0 -15 -8 -21 -31 -23 -35 -3 -56 -26 -46 -52 5 -11 19 -16 52 -16 l45 0 0 48
c0 26 -5 53 -12 60 -13 13 -60 16 -71 5z m61 -75 c-4 -31 -58 -40 -58 -10 0
25 8 32 37 32 20 0 24 -5 21 -22z"/>
<path d="M1180 1491 c22 -6 26 -14 31 -61 l6 -55 1 57 c2 50 5 57 25 61 12 2
-3 4 -33 5 -37 0 -47 -2 -30 -7z"/>
<path d="M1293 1440 c0 -36 2 -53 4 -37 4 23 9 27 38 27 29 0 34 -4 38 -27 2
-16 4 1 4 37 0 36 -2 53 -4 38 -4 -24 -9 -28 -38 -28 -29 0 -34 4 -38 28 -2
15 -4 -2 -4 -38z"/>
<path d="M1435 1490 c-9 -14 -9 -86 -1 -99 4 -6 24 -11 46 -11 41 0 50 11 50
60 0 49 -9 60 -50 60 -22 0 -42 -5 -45 -10z m73 -52 l3 -48 -35 0 c-36 0 -36
0 -36 43 0 51 6 59 40 55 22 -3 25 -8 28 -50z"/>
<path d="M2312 839 c-101 -50 -156 -136 -156 -244 0 -110 55 -193 157 -241
l52 -24 790 0 c511 0 803 4 827 10 64 18 131 80 162 150 25 54 28 72 23 126
-6 75 -38 138 -96 183 -81 64 -33 61 -913 61 -799 0 -803 0 -846 -21z m166
-172 c6 -7 10 -42 9 -77 l-2 -65 -39 -3 c-61 -5 -86 4 -86 33 0 18 5 25 20 25
11 0 20 -4 20 -10 0 -5 11 -10 25 -10 14 0 25 5 25 10 0 6 -9 10 -20 10 -13 0
-20 7 -20 20 0 13 7 20 20 20 11 0 20 5 20 10 0 6 -11 10 -25 10 -14 0 -25 -4
-25 -10 0 -5 -9 -10 -20 -10 -25 0 -27 35 -2 49 24 15 88 13 100 -2z m590 1
c5 -7 10 -41 11 -75 0 -58 -1 -63 -23 -69 -12 -3 -40 -4 -62 -2 -34 3 -39 6
-42 31 -3 22 1 27 17 27 12 0 21 -4 21 -10 0 -5 11 -10 25 -10 14 0 25 5 25
10 0 6 -9 10 -20 10 -13 0 -20 7 -20 20 0 13 7 20 20 20 11 0 20 5 20 10 0 6
-11 10 -25 10 -14 0 -25 -4 -25 -10 0 -5 -9 -10 -20 -10 -25 0 -27 35 -2 49
24 15 88 13 100 -1z m788 -24 c24 -19 44 -41 44 -49 0 -19 -87 -88 -100 -80
-17 10 -12 30 15 55 l25 24 -26 27 c-16 17 -24 34 -21 43 9 22 14 21 63 -20z
m-1228 -42 c12 -37 22 -71 22 -75 0 -14 -38 -7 -44 8 -3 8 -16 15 -30 15 -13
0 -26 -7 -30 -15 -3 -8 -15 -15 -27 -15 -18 0 -20 4 -14 28 4 15 16 48 27 75
17 39 25 47 47 47 23 0 28 -7 49 -68z m72 43 c0 -31 22 -33 35 -2 6 13 21 23
38 25 l27 3 -20 -34 c-19 -32 -19 -35 -4 -67 l17 -33 25 66 c22 60 27 67 51
67 24 0 30 -7 49 -62 12 -35 22 -69 22 -75 0 -18 -29 -16 -36 2 -4 8 -18 15
-34 15 -16 0 -30 -7 -34 -15 -3 -9 -19 -15 -41 -15 -29 0 -39 5 -53 30 -22 39
-42 39 -42 -1 0 -24 -4 -30 -17 -27 -15 3 -19 16 -21 76 -3 67 -1 72 18 72 15
0 20 -6 20 -25z m514 -40 c14 -36 26 -70 26 -75 0 -15 -26 -12 -40 5 -7 8 -23
15 -37 15 -13 0 -26 -7 -29 -15 -8 -19 -44 -20 -44 -1 0 7 7 31 16 52 9 22 20
49 25 62 6 14 17 22 33 22 20 0 28 -10 50 -65z m137 53 c0 -10 2 -10 6 0 2 6
14 12 25 12 15 0 19 -5 15 -20 -4 -17 0 -20 34 -20 45 0 63 -24 53 -67 -9 -37
-20 -43 -76 -43 l-48 0 0 60 c0 60 0 60 -30 60 -28 0 -29 -1 -32 -57 -2 -44
-7 -58 -18 -58 -11 0 -16 14 -18 58 -3 52 -5 57 -26 57 -13 0 -23 6 -23 15 0
20 137 22 138 3z"/>
<path d="M2571 604 c0 -11 3 -14 6 -6 3 7 2 16 -1 19 -3 4 -6 -2 -5 -13z"/>
<path d="M2860 600 c0 -5 5 -10 10 -10 6 0 10 5 10 10 0 6 -4 10 -10 10 -5 0
-10 -4 -10 -10z"/>
<path d="M3155 600 c-3 -5 -1 -10 4 -10 6 0 11 5 11 10 0 6 -2 10 -4 10 -3 0
-8 -4 -11 -10z"/>
<path d="M3400 585 c-10 -12 -9 -16 4 -21 9 -3 23 -3 32 0 13 5 14 9 4 21 -16
19 -24 19 -40 0z"/>
<path d="M320 621 c0 -9 89 -21 103 -14 4 3 5 9 2 14 -8 12 -105 12 -105 0z"/>
<path d="M492 621 c-9 -5 -12 -29 -10 -82 l3 -74 55 0 55 0 3 68 c2 42 -2 74
-9 83 -12 15 -76 19 -97 5z m96 -69 c4 -66 -9 -84 -57 -80 l-36 3 -3 68 -3 68
48 -3 48 -3 3 -53z"/>
<path d="M740 620 c0 -5 9 -10 20 -10 17 0 20 -8 23 -77 l3 -78 2 88 c2 87 2
87 -23 87 -14 0 -25 -4 -25 -10z"/>
<path d="M852 618 c-7 -7 -12 -19 -12 -27 1 -14 3 -13 14 2 8 11 27 17 50 17
55 0 49 -34 -14 -88 -28 -24 -50 -47 -50 -53 0 -5 28 -8 63 -7 56 1 57 2 15 5
-27 2 -48 8 -48 13 0 4 18 23 40 40 32 26 40 38 40 65 0 21 -6 35 -16 39 -26
10 -69 7 -82 -6z"/>
<path d="M1016 614 c-18 -18 -22 -104 -6 -135 8 -14 21 -19 53 -19 24 0 48 5
55 12 15 15 16 112 2 139 -13 24 -81 26 -104 3z m92 -71 l-3 -68 -40 0 -40 0
-3 68 -3 67 46 0 46 0 -3 -67z"/>
<path d="M372 580 c-30 -28 -28 -40 9 -40 28 0 30 -2 27 -32 -3 -28 -7 -34
-32 -36 -22 -3 -34 3 -48 20 -12 16 -18 18 -18 8 0 -8 4 -21 9 -28 11 -19 91
-12 104 9 14 23 0 70 -23 76 -23 6 -26 19 -7 26 6 2 9 7 6 11 -3 3 -15 -3 -27
-14z"/>
<path d="M1232 518 l1 -63 6 50 6 50 20 -47 c11 -27 24 -48 28 -48 4 0 18 21
30 48 l22 47 6 -50 6 -50 1 63 c1 34 -2 62 -6 62 -4 0 -19 -24 -34 -52 l-25
-53 -27 53 c-14 28 -29 52 -31 52 -3 0 -4 -28 -3 -62z"/>
<path d="M1400 520 c0 -33 4 -60 10 -60 5 0 24 21 42 48 l33 47 6 -50 6 -50 1
63 c1 34 -1 62 -5 62 -5 0 -21 -21 -38 -48 l-30 -47 -3 48 c-4 68 -22 58 -22
-13z"/>
<path d="M1553 520 c0 -36 2 -53 4 -37 4 23 9 27 38 27 29 0 34 -4 38 -27 2
-16 4 1 4 37 0 36 -2 53 -4 38 -4 -24 -9 -28 -38 -28 -29 0 -34 4 -38 28 -2
15 -4 -2 -4 -38z"/>
<path d="M658 533 c12 -2 32 -2 45 0 12 2 2 4 -23 4 -25 0 -35 -2 -22 -4z"/>
<path d="M1142 43 c588 -2 1548 -2 2135 0 588 1 107 2 -1067 2 -1174 0 -1655
-1 -1068 -2z"/>
<path d="M4378 43 c6 -2 18 -2 25 0 6 3 1 5 -13 5 -14 0 -19 -2 -12 -5z"/>
</g>
</svg>
